%FSTAX24Y24*%
%MOMM*%
%SFA1B1*%

%IPPOS*%
%ADD17R,0.899998X1.449997*%
%ADD18R,1.449997X0.899998*%
%ADD37C,0.759998*%
%ADD38R,2.399995X2.399995*%
%ADD39R,2.499995X2.499995*%
%ADD40C,2.499995*%
%ADD41O,1.999996X2.999994*%
%ADD42C,0.999998*%
%ADD43C,2.499995*%
%ADD44C,1.999996*%
%ADD45R,1.999996X2.499995*%
%ADD46O,1.999996X2.499995*%
%ADD47R,1.999996X1.999996*%
%ADD48O,1.999996X2.999994*%
%ADD49R,1.999996X1.999996*%
%ADD50C,1.519997*%
%ADD51C,1.699997*%
%ADD52O,1.999996X2.499995*%
%LNpcb-1*%
%LPD*%
G36*
X1470699Y0D02*
X0D01*
Y1143*
X001299Y1144299*
X1470699*
Y0*
G37*
%LNpcb-2*%
%LPC*%
G36*
X618899Y1133199D02*
X560499D01*
Y1102099*
X559799Y1101599*
X557499Y1099299*
X555699Y1096599*
X554399Y1093599*
X553799Y1090499*
Y1087199*
X554399Y1083999*
X555699Y1080999*
X557499Y1078299*
X559799Y1075999*
X560499Y1075499*
Y1050299*
X559299Y1049499*
X557599Y1047899*
X556399Y1045799*
X555799Y1043499*
Y1041099*
X556399Y1038899*
X557599Y1036799*
X559299Y1035099*
X561299Y1033899*
X563599Y1033299*
X565999*
X568299Y1033899*
X570299Y1035099*
X571999Y1036799*
X573199Y1038899*
X573799Y1041099*
Y1043499*
X573499Y1044599*
X574299Y1045599*
X596599*
X596699Y1044299*
X596599*
X593399Y1042399*
X590799Y1039799*
X588899Y1036599*
X587999Y1033099*
Y1029399*
X588899Y1025799*
X590799Y1022599*
X593399Y1019999*
X596599Y1018199*
X600099Y1017199*
X603799*
X607399Y1018199*
X6096Y1019499*
X610699Y1018599*
X610099Y1016299*
Y1012599*
X610999Y1008999*
X612099Y1007199*
X611399Y1006099*
X552499*
Y1007699*
X551499Y1011199*
X549699Y1014399*
X547099Y1016999*
X543899Y1018899*
X540299Y1019799*
X536599*
X533099Y1018899*
X529899Y1016999*
X527299Y1014399*
X525399Y1011199*
X524499Y1007699*
Y1003999*
X525399Y1000399*
X527299Y997199*
X529899Y994599*
X533099Y992799*
X536599Y991799*
X540299*
X543499Y992699*
X543599Y992599*
X545199Y991399*
X546299Y990899*
X547099Y9906*
X549099Y990299*
X613399*
X690599Y913099*
Y700999*
X680999*
Y7112*
X680699Y713199*
X679899Y715099*
X678699Y716799*
X641799Y753599*
X640199Y754899*
X638299Y755599*
X636299Y755899*
X485099*
X483099Y755599*
X481199Y754899*
X479599Y753599*
X220299Y494299*
X132099*
X129999Y493999*
X128099Y493199*
X126499Y491999*
X079599Y445099*
X079099Y445199*
X075399*
X071899Y444199*
X068699Y442399*
X066099Y439799*
X064199Y436599*
X063299Y432999*
Y429399*
X064199Y425799*
X066099Y422599*
X068699Y419999*
X071899Y418199*
X075399Y417199*
X079099*
X082699Y418199*
X085899Y419999*
X088499Y422599*
X090299Y425799*
X091299Y429399*
Y432999*
X090999Y434199*
X104199Y447399*
X105399Y446899*
Y424399*
X104599Y423899*
X102299Y421599*
X100499Y418899*
X099299Y415899*
X098699Y412699*
Y409399*
X099299Y406199*
X100499Y403199*
X102299Y400499*
X104599Y398199*
X105399Y397699*
Y372499*
X104099Y371699*
X102399Y370099*
X101299Y367999*
X100599Y365699*
Y363399*
X101299Y361099*
X102399Y358999*
X104099Y357299*
X106199Y356199*
X108499Y355499*
X110799*
X113099Y356199*
X115199Y357299*
X116899Y358999*
X117999Y361099*
X118599Y363399*
Y364499*
X163799*
Y398399*
X165999Y400499*
X167799Y403199*
X168999Y406199*
X169599Y409399*
Y412699*
X168999Y415899*
X167799Y418899*
X165999Y421599*
X163799Y423699*
Y452099*
X150299*
X148699Y452499*
X144999*
X143399Y452099*
X124899*
X123299Y452499*
X119599*
X117999Y452099*
X110599*
X110099Y453299*
X135299Y478499*
X223499*
X225599Y478799*
X227499Y479599*
X229099Y480799*
X488399Y740199*
X491199*
X491699Y738899*
X490999Y738399*
X328399Y575799*
X327199Y574199*
X326399Y572299*
X326099Y570199*
Y451499*
X305099*
X299999Y456599*
Y486099*
X305599Y491699*
X306399Y491499*
X310099*
X313699Y492499*
X316899Y494299*
X319499Y496899*
X321299Y500099*
X322299Y503699*
Y507399*
X321299Y510899*
X319499Y514099*
X316899Y516699*
X313699Y518599*
X310099Y519499*
X306399*
X302899Y518599*
X299699Y516699*
X297099Y514099*
X295199Y510899*
X294299Y507399*
Y503699*
X294499Y502899*
X286499Y494899*
X285299Y493299*
X284499Y491399*
X284199Y489399*
Y453299*
X284299Y452499*
X283499Y451499*
X243799*
Y437899*
X243699Y436799*
Y426799*
X243799Y425699*
Y413399*
X253599*
X254199Y413199*
X257799Y412699*
X261499Y413199*
X261999Y413399*
X304399*
X304999Y413199*
X308599Y412699*
X312299Y413199*
X312799Y413399*
X325999*
Y409299*
X325099Y408799*
X322499Y406199*
X320599Y402999*
X319699Y399399*
Y395699*
X320599Y392199*
X322499Y388999*
X325099Y386399*
X328299Y384499*
X331799Y383599*
X335499*
X339099Y384499*
X342299Y386399*
X344899Y388999*
X346699Y392199*
X347699Y395699*
Y399399*
X346699Y402999*
X344899Y406199*
X342299Y408799*
X341699Y409099*
Y413399*
X355199*
X355799Y413199*
X359399Y412699*
X363099Y413199*
X363599Y413399*
X366699*
X416499Y363499*
Y360099*
X417499Y356499*
X419299Y353399*
X421899Y350699*
X425099Y348899*
X428699Y347899*
X432399*
X435899Y348899*
X439099Y350699*
X441699Y353399*
X443599Y356499*
X4445Y360099*
Y363799*
X443599Y367399*
X441699Y370499*
X439099Y373199*
X435899Y374999*
X432399Y375999*
X428699*
X426899Y375499*
X373499Y428799*
Y436799*
X373399Y437899*
Y451499*
X341899*
Y566999*
X499799Y724899*
X601299*
X608499Y717699*
X608299Y716899*
Y713199*
X609299Y709599*
X611099Y706399*
X613699Y703799*
X614399Y703399*
Y700999*
X598899*
X598699Y701099*
X595099*
X594899Y700999*
X582899*
Y688999*
Y688899*
Y685199*
Y685099*
Y671799*
X918199*
Y700999*
X903699*
X903499Y701099*
X899899*
X899699Y700999*
X878299*
X878099Y701099*
X874499*
X874299Y700999*
X852899*
X852699Y701099*
X849099*
X848899Y700999*
X833399*
Y706699*
X851599Y724899*
X1017799*
X12192Y523499*
X1218999Y522199*
X1010899*
X1008899Y521999*
X1006999Y521199*
X1005299Y519899*
X846199Y360699*
X844899Y359099*
X844099Y357199*
X843899Y355199*
Y351799*
X804699*
X804099Y352499*
X797099Y359599*
X797599Y361399*
Y365099*
X796599Y368599*
X794799Y371799*
X792199Y374399*
X788999Y376299*
X785399Y377199*
X781699*
X778199Y376299*
X774999Y374399*
X772399Y371799*
X770499Y368599*
X769599Y365099*
Y361399*
X770499Y357799*
X772399Y354599*
X774999Y351999*
X778199Y350199*
X781699Y349199*
X785199*
X786099Y348299*
Y3175*
X8001*
X800899Y317399*
X801799Y3175*
X817999*
Y315399*
X816899Y314699*
X814299Y312099*
X812499Y308899*
X811499Y305399*
Y301699*
X812499Y298099*
X814299Y294899*
X816899Y292299*
X820099Y290499*
X823699Y289499*
X827299*
X830899Y290499*
X834099Y292299*
X836699Y294899*
X838499Y298099*
X839499Y301699*
Y305399*
X838499Y308899*
X836699Y312099*
X834099Y314699*
X833799Y314899*
Y3175*
X8509*
X851699Y317399*
X852599Y3175*
X8763*
X877099Y317399*
X877999Y3175*
X891499*
Y351799*
X889099*
X888599Y352999*
X906199Y370599*
X1056599*
X1058699Y370899*
X1059499Y371199*
X1060599Y371599*
X1062199Y372899*
X1100799Y411499*
X1123899*
Y425799*
X1124099Y426799*
Y436799*
X1123899Y437799*
Y450799*
X1110499*
X1109999Y450899*
X1109399Y450799*
X1094699*
Y427699*
X1053399Y386299*
X902999*
X900899Y386099*
X898999Y385299*
X897399Y383999*
X871599Y358199*
X870299Y356599*
X869499Y354699*
X869299Y352599*
Y351799*
X861299*
X860799Y353099*
X1014199Y506499*
X1228599*
X1254499Y480599*
Y450799*
X1244899*
Y4699*
X12446Y471899*
X1243799Y473799*
X1242599Y475499*
X1231399Y486599*
X12319Y488399*
Y492099*
X1230999Y495599*
X1229099Y498799*
X1226499Y501399*
X1223299Y503299*
X1219799Y504199*
X1216099*
X1212499Y503299*
X1209299Y501399*
X1206699Y498799*
X1204899Y495599*
X1203899Y492099*
Y488399*
X1204899Y484799*
X1206699Y481599*
X1209299Y478999*
X1212499Y477199*
X1216099Y476199*
X1219499*
X1229099Y466599*
Y450799*
X1212099*
X1211599Y450899*
X1210999Y450799*
X1203699*
X1162499Y491999*
X1160899Y493199*
X1158999Y493999*
X1156999Y494299*
X1018499*
X1016499Y493999*
X1014599Y493199*
X1012999Y491999*
X954299Y433399*
X952699*
X949099Y432399*
X945899Y430599*
X943299Y427999*
X941499Y424799*
X940499Y421199*
Y417499*
X941499Y413999*
X943299Y410799*
X945899Y408199*
X949099Y406299*
X952699Y405399*
X956399*
X959899Y406299*
X963099Y408199*
X965699Y410799*
X967599Y413999*
X968499Y417499*
Y421199*
X967699Y424399*
X1021799Y478499*
X1153699*
X1180199Y451999*
X1179699Y450799*
X1161299*
X1160799Y450899*
X1160199Y450799*
X1146799*
Y437999*
X1146599Y436799*
Y426799*
X1146799Y425599*
Y412799*
X1160199*
X1160799Y412699*
X1161299Y412799*
X1210999*
X1211599Y412699*
X1212099Y412799*
X1229099*
Y386799*
X1126999Y284699*
X793199*
X762899Y315099*
X763399Y316199*
X765799*
Y353099*
X708699*
Y341899*
X665499*
X663399Y341599*
X661499Y340799*
X659899Y339599*
X605099Y284699*
X558199*
X509499Y333499*
Y639399*
X540699Y670599*
X561499*
Y700999*
X548099*
X547899Y701099*
X544299*
X544099Y700999*
X529699*
Y681899*
X496099Y648199*
X494799Y646599*
X493999Y644699*
X493799Y642599*
Y3302*
X493999Y328199*
X494799Y326299*
X496099Y324599*
X565099Y255599*
Y232399*
X598199*
Y255599*
X668699Y326099*
X708699*
Y316199*
X742399*
X742599Y314499*
X743399Y312599*
X744699Y310999*
X782699Y272999*
X782199Y271799*
X688299*
Y236199*
X687699Y235199*
X665499*
X663399Y234899*
X661499Y234199*
X659899Y232899*
X479599Y052599*
X478299Y050899*
X477499Y048999*
X477299Y046999*
Y039399*
X439399*
Y001299*
X530899*
Y012399*
X577799*
X579899Y0127*
X581799Y013499*
X583399Y014699*
X746199Y177499*
X833099*
X835199Y1778*
X837099Y178599*
X838699Y179799*
X891299Y232399*
X9144*
Y2667*
X881399*
Y244799*
X829899Y193299*
X742899*
X740899Y192999*
X738999Y192199*
X737399Y190999*
X574599Y028199*
X530899*
Y039399*
X492999*
Y043699*
X668699Y219499*
X793999*
X798799Y214599*
X806799*
X807399Y214299*
X810999Y213299*
X814599*
X818199Y214299*
X818799Y214599*
X827999*
Y268999*
X11303*
X1132299Y269299*
X1134199Y269999*
X1135899Y271299*
X1242599Y377999*
X1243799Y379599*
X12446Y381499*
X1244899Y383499*
Y412799*
X1261799*
X1262399Y412699*
X1262899Y412799*
X1274799*
Y395199*
X1274099Y394699*
X1271499Y392099*
X1269699Y388899*
X1268699Y385399*
Y381699*
X1269699Y378099*
X1271499Y374899*
X1274099Y372299*
X1277299Y370499*
X1280899Y369499*
X1284499*
X1288099Y370499*
X1291299Y372299*
X1293899Y374899*
X1295699Y378099*
X1296699Y381699*
Y385399*
X1295699Y388899*
X1293899Y392099*
X1291299Y394699*
X1290599Y395199*
Y4953*
X1290299Y497299*
X1289499Y499199*
X1288299Y500899*
X1254699Y534499*
X1252999Y535699*
X1251899Y536199*
X1251099Y536499*
X1249099Y536799*
X1228199*
X1026699Y738399*
X1024999Y739599*
X1023899Y740099*
X1023099Y740399*
X1021099Y740699*
X848399*
X846299Y740399*
X844399Y739599*
X842799Y738399*
X819899Y715499*
X818699Y713899*
X817899Y711999*
X817599Y709899*
Y700999*
X807999*
Y935299*
X848899Y976099*
X850099Y977799*
X8509Y979699*
X851199Y981699*
Y1002799*
X851899Y1003199*
X854499Y1005799*
X856299Y1008999*
X857299Y1012599*
Y1016299*
X856299Y1019799*
X855199Y1021799*
X855899Y1023099*
X885299*
X885599Y1022599*
X888199Y1019999*
X891399Y1018199*
X894899Y1017199*
X898599*
X902199Y1018199*
X905399Y1019999*
X907999Y1022599*
X909799Y1025799*
X910799Y1029399*
Y1033099*
X909799Y1036599*
X907999Y1039799*
X905399Y1042399*
X904299Y1043099*
X904599Y1044299*
X913599*
Y1076099*
X915699Y1078299*
X917499Y1080999*
X918799Y1083999*
X919399Y1087199*
Y1090499*
X918799Y1093599*
X917499Y1096599*
X915699Y1099299*
X913599Y1101499*
Y1131999*
X855099*
Y1102099*
X854399Y1101599*
X852099Y1099299*
X850299Y1096599*
X849099Y1093599*
X848399Y1090499*
Y1087199*
X849099Y1083999*
X850299Y1080999*
X852099Y1078299*
X854399Y1075999*
X855099Y1075499*
Y1050299*
X853899Y1049499*
X852199Y1047899*
X850999Y1045799*
X850399Y1043499*
Y1041099*
X850799Y1039899*
X849999Y1038899*
X834899*
X834299Y1039799*
X831699Y1042399*
X830599Y1043099*
X830999Y1044299*
X839899*
Y1076199*
X841999Y1078299*
X843799Y1080999*
X845099Y1083999*
X845699Y1087199*
Y1090499*
X845099Y1093599*
X843799Y1096599*
X841999Y1099299*
X839899Y1101499*
Y1131999*
X781499*
Y1102199*
X780699Y1101599*
X778399Y1099299*
X776599Y1096599*
X775299Y1093599*
X7747Y1090499*
Y1087199*
X775299Y1083999*
X776599Y1080999*
X778399Y1078299*
X780699Y1075999*
X781499Y1075499*
Y1050299*
X780199Y1049499*
X778499Y1047899*
X777299Y1045799*
X776699Y1043499*
Y1041099*
X776999Y1040099*
X776199Y1039099*
X759599*
X759199Y1039799*
X756599Y1042399*
X755599Y1043099*
X755899Y1044299*
X766199*
Y1076099*
X768399Y1078299*
X770199Y1080999*
X771499Y1083999*
X772099Y1087199*
Y1090499*
X771499Y1093599*
X770199Y1096599*
X768399Y1099299*
X766199Y1101499*
Y1131999*
X707799*
Y1102099*
X707099Y1101599*
X704799Y1099299*
X702999Y1096599*
X701699Y1093599*
X701099Y1090499*
Y1087199*
X701699Y1083999*
X702999Y1080999*
X704799Y1078299*
X707099Y1075999*
X707799Y1075499*
Y1050299*
X706599Y1049499*
X704899Y1047899*
X703699Y1045799*
X703099Y1043499*
Y1041099*
X703399Y1040099*
X702599Y1039099*
X687399*
X686999Y1039799*
X684399Y1042399*
X683299Y1043099*
X683699Y1044299*
X692599*
Y1076099*
X694799Y1078299*
X696599Y1080999*
X697799Y1083999*
X698399Y1087199*
Y1090499*
X697799Y1093599*
X696599Y1096599*
X694799Y1099299*
X692599Y1101499*
Y1131999*
X634199*
Y1102099*
X633399Y1101599*
X631099Y1099299*
X629299Y1096599*
X628099Y1093599*
X627399Y1090499*
Y1087199*
X628099Y1083999*
X629299Y1080999*
X631099Y1078299*
X633399Y1075999*
X634199Y1075499*
Y1050299*
X632899Y1049499*
X631199Y1047899*
X630099Y1045799*
X629399Y1043499*
Y1041099*
X629699Y1040099*
X628899Y1039099*
X613599*
X613199Y1039799*
X610599Y1042399*
X607399Y1044299*
X607199*
X607399Y1045599*
X618899*
Y1076099*
X621099Y1078299*
X622899Y1080999*
X624099Y1083999*
X624799Y1087199*
Y1090499*
X624099Y1093599*
X622899Y1096599*
X621099Y1099299*
X618899Y1101499*
Y1133199*
G37*
G36*
X660899Y599599D02*
X657199D01*
X653599Y598599*
X650499Y596799*
X647799Y594099*
X645999Y590999*
X644999Y587399*
Y583699*
X645999Y580099*
X647799Y576999*
X650499Y574299*
X653599Y572499*
X657199Y5715*
X660899*
X664499Y572499*
X667599Y574299*
X670299Y576999*
X670699Y577699*
X678599*
X690499Y565799*
Y550599*
X689599Y549699*
X632499Y549899*
Y5207*
X635999*
X636599Y519399*
X634599Y517499*
X632799Y518499*
X629199Y519499*
X625499*
X621999Y518499*
X618799Y516699*
X616199Y514099*
X614299Y510899*
X613399Y507299*
Y503599*
X613599Y502899*
X612499Y502299*
X595399Y519399*
X595899Y5207*
X598699*
X598899*
X612099*
Y549899*
X530899*
Y5207*
X532099*
X538199*
Y470999*
X537599*
Y448499*
X554599*
X554999*
X556199Y447499*
Y443499*
X552799*
Y426499*
X562099*
X562599*
X563399*
X563899*
X575299*
Y438899*
X575699Y439099*
X586799Y450299*
X587999Y449799*
Y394999*
X601299*
X601399Y394899*
X605099*
X605199Y394999*
X614699*
Y385499*
Y385399*
Y381699*
Y381599*
Y369599*
X626699*
X626799Y369499*
X630499*
X630599Y369599*
X643899*
Y375699*
X645899Y375899*
X647799Y376699*
X649499Y377999*
X691399Y419899*
X692599Y421499*
X693399Y423399*
X693699Y425399*
Y463499*
X693399Y465599*
X692599Y467499*
X691399Y469099*
X668499Y491999*
X666899Y493199*
X664999Y493999*
X662899Y494299*
X637699*
X637199Y495499*
X638599Y496899*
X640399Y500099*
X640799Y501599*
X641699Y502299*
X650899Y511499*
X652199Y513099*
X652899Y514999*
X653199Y517099*
Y5207*
X665199*
Y501699*
X665499Y499599*
X666299Y497699*
X667499Y496099*
X700899Y462699*
Y454399*
X701199Y452399*
X701999Y450499*
X703199Y448799*
X732899Y419199*
Y417699*
X733899Y414099*
X735699Y410899*
X738299Y408299*
X741499Y406499*
X745099Y405499*
X748799*
X752299Y406499*
X755499Y408299*
X758099Y410899*
X759999Y414099*
X760899Y417699*
Y421399*
X759999Y424899*
X758099Y428099*
X755499Y430699*
X752299Y432599*
X748799Y433499*
X745099*
X741699Y432599*
X716699Y457699*
Y465899*
X716499Y467399*
X717399Y468699*
X891499*
Y502999*
X884599*
Y5207*
X899699*
X899899*
X903499*
X903699*
X916899*
Y538799*
X948099Y569999*
X988099*
Y560099*
X1023599*
Y5969*
X988099*
Y585699*
X944899*
X942799Y585499*
X940899Y584699*
X939299Y583399*
X904599Y548699*
X706199Y549599*
Y569099*
X705999Y571099*
X705199Y572999*
X703899Y574699*
X687499Y591099*
X6858Y592399*
X683899Y593199*
X681899Y593399*
X670699*
X670299Y594099*
X667599Y596799*
X664499Y598599*
X660899Y599599*
G37*
G36*
X1363099Y454999D02*
X1304699D01*
Y423899*
X1304599*
X1302299Y421599*
X1300499Y418899*
X1299299Y415899*
X1298699Y412699*
Y409399*
X1299299Y406199*
X1300499Y403199*
X1302299Y400499*
X1304599Y398199*
X1304699*
Y372099*
X1304099Y371699*
X1302399Y370099*
X1301299Y367999*
X1300599Y365699*
Y363399*
X1301299Y361099*
X1302399Y358999*
X1304099Y357299*
X1306199Y356199*
X1308499Y355499*
X1310799*
X1313099Y356199*
X1315199Y357299*
X1316899Y358999*
X1317999Y361099*
X1318599Y363399*
Y365699*
X1318499Y366399*
X1319199Y367399*
X1363099*
Y397899*
X1363699Y398199*
X1365999Y400499*
X1367799Y403199*
X1368999Y406199*
X1369599Y409399*
Y412699*
X1368999Y415899*
X1367799Y418899*
X1365999Y421599*
X1363699Y423899*
X1363099Y424199*
Y454999*
G37*
G36*
X220999Y451499D02*
X191799D01*
Y412099*
X199099*
Y401299*
X199399Y399299*
X200199Y397399*
X201399Y395699*
X315699Y281399*
X317399Y280199*
X319299Y2794*
X321299Y279099*
X335099*
X335499Y278399*
X338099Y275799*
X341299Y273999*
X344899Y272999*
X348599*
X352099Y273999*
X355299Y275799*
X357899Y278399*
X359799Y281599*
X360699Y285199*
Y288899*
X359799Y292399*
X357899Y295599*
X355299Y298199*
X352099Y300099*
X348599Y300999*
X344899*
X341299Y300099*
X338099Y298199*
X335499Y295599*
X335099Y294899*
X324599*
X214899Y404599*
Y412099*
X220999*
Y425699*
X221099Y426799*
Y436799*
X220999Y437899*
Y451499*
G37*
G36*
X1198699Y283199D02*
X1194999D01*
X1191499Y282199*
X1188299Y280399*
X1185699Y277799*
X1183799Y274599*
X1182899Y270999*
Y267299*
X1183799Y263799*
X1185699Y260599*
X1188299Y257999*
X1191499Y256099*
X1194999Y255199*
X1198699*
X1202299Y256099*
X1205499Y257999*
X1208099Y260599*
X1209899Y263799*
X1210899Y267299*
Y270999*
X1209899Y274599*
X1208099Y277799*
X1205499Y280399*
X1202299Y282199*
X1198699Y283199*
G37*
G36*
X281999Y280899D02*
X278299D01*
X274699Y279999*
X271499Y278099*
X268899Y275499*
X267099Y272299*
X266099Y268799*
Y265099*
X267099Y261499*
X268899Y258299*
X271499Y255699*
X274699Y253899*
X278299Y252899*
X281999*
X285499Y253899*
X288699Y255699*
X291299Y258299*
X293199Y261499*
X294099Y265099*
Y268799*
X293199Y272299*
X291299Y275499*
X288699Y278099*
X285499Y279999*
X281999Y280899*
G37*
G36*
X1198799Y103799D02*
X1195099D01*
X1191599Y102799*
X1188399Y100999*
X1185799Y098399*
X1183899Y095199*
X1182999Y091599*
Y087899*
X1183899Y084399*
X1185799Y081199*
X1188399Y078599*
X1191599Y076699*
X1195099Y075799*
X1198799*
X1202399Y076699*
X1205599Y078599*
X1208199Y081199*
X1209999Y084399*
X1210999Y087899*
Y091599*
X1209999Y095199*
X1208199Y098399*
X1205599Y100999*
X1202399Y102799*
X1198799Y103799*
G37*
G36*
X282099Y101499D02*
X278399D01*
X274799Y100599*
X271599Y098699*
X268999Y096099*
X267199Y092899*
X266199Y089399*
Y085699*
X267199Y082099*
X268999Y078899*
X271599Y076299*
X274799Y074499*
X278399Y073499*
X282099*
X285599Y074499*
X288799Y076299*
X291399Y078899*
X293299Y082099*
X294199Y085699*
Y089399*
X293299Y092899*
X291399Y096099*
X288799Y098699*
X285599Y100599*
X282099Y101499*
G37*
G36*
X827999Y048299D02*
X792499D01*
Y010199*
X827999*
Y048299*
G37*
G36*
X688299Y046899D02*
X652699D01*
Y008799*
X688299*
Y046899*
G37*
G36*
X1019699Y058499D02*
X945999D01*
Y002699*
X1019699*
Y058499*
G37*
%LNpcb-3*%
%LPD*%
G36*
X610999Y279499D02*
X598199Y2667D01*
X565099*
X552399Y2794*
X553699Y280699*
X610499*
X610999Y279499*
G37*
G36*
X587999Y4572D02*
X572799Y441999D01*
X564099*
Y449899*
X5715*
Y459699*
X587999*
Y4572*
G37*
G36*
X659499Y458499D02*
X659799Y457799D01*
Y428999*
X658599Y428499*
Y428599*
X647599Y416599*
X646399Y416999*
Y440699*
X643899Y443199*
Y458199*
X644799Y459099*
X659499Y458499*
G37*
G54D17*
X564099Y459699D03*
X5461D03*
G54D18*
X564099Y416999D03*
Y434999D03*
G54D37*
X681899Y585599D02*
X698399Y569099D01*
X658999Y585599D02*
X681899D01*
X698399Y534799D02*
Y569099D01*
Y534799D02*
X6985Y534699D01*
X6223Y561299D02*
Y601999D01*
Y534699D02*
Y561299D01*
X5969Y562599D02*
X620999D01*
X6223Y561299*
X629699Y507799D02*
X636099D01*
X645299Y517099D02*
Y532299D01*
X636099Y507799D02*
X645299Y517099D01*
X627399Y505499D02*
X629699Y507799D01*
X645299Y532299D02*
X6477Y534699D01*
X769899Y1011099D02*
X7747Y1006299D01*
X769899Y1011099D02*
Y1014399D01*
X7747Y687099D02*
Y1006299D01*
X743699Y419499D02*
X746899D01*
X708799Y454399D02*
X743699Y419499D01*
X708799Y454399D02*
Y465899D01*
X6731Y501699D02*
X708799Y465899D01*
X6731Y501699D02*
Y534699D01*
X9525Y420399D02*
X1018499Y486399D01*
X2921Y453299D02*
Y489399D01*
Y453299D02*
X308599Y436799D01*
X2921Y489399D02*
X308299Y505499D01*
X308599Y4318D02*
Y436799D01*
X581699Y199399D02*
X636299Y254D01*
X1069299Y331499D02*
X1135399Y397499D01*
X564099Y397299D02*
Y416999D01*
Y397299D02*
X577799Y383499D01*
X603299*
X232399Y4318D02*
Y463499D01*
Y407999D02*
X268499Y371899D01*
X232399Y407999D02*
Y4318D01*
X321299Y286999D02*
X346699D01*
X206999Y401299D02*
Y4318D01*
Y401299D02*
X321299Y286999D01*
X333799Y431599D02*
X333999Y4318D01*
X333799Y397699D02*
Y431599D01*
X333699Y397599D02*
X333799Y397699D01*
X562299Y434699D02*
X562599Y434299D01*
X563399*
X564099Y434999D02*
Y459699D01*
X563399Y434299D02*
X564099Y434999D01*
X1079899Y549699D02*
X1080099Y549499D01*
X1079599Y577899D02*
X1079899Y577599D01*
Y549699D02*
Y577599D01*
X6223Y601999D02*
X1055499D01*
X1079599Y577899*
X1135399Y4318D02*
Y467299D01*
X954999Y331499D02*
X1069299D01*
X1135399Y397499D02*
Y4318D01*
X903799Y332699D02*
X953799D01*
X954999Y331499*
X902499Y333999D02*
X903799Y332699D01*
X957599Y486399D02*
X1048999Y577899D01*
X902499Y486399D02*
X957599D01*
X1048999Y577899D02*
X1079599D01*
X851699Y355199D02*
X1010899Y514399D01*
X12319*
X873299Y437699D02*
X902499Y466899D01*
X806599Y437699D02*
X873299D01*
X902499Y466899D02*
Y486399D01*
X763299Y394299D02*
X806599Y437699D01*
X763299Y352099D02*
Y394299D01*
X775499Y333999D02*
Y339899D01*
X763299Y352099D02*
X775499Y339899D01*
X5715Y652799D02*
Y687099D01*
Y652799D02*
X6223Y601999D01*
X5715Y687099D02*
Y712499D01*
X8001Y938499D02*
X843299Y981699D01*
Y1011999*
X8001Y687099D02*
Y938499D01*
X7239Y687099D02*
Y943599D01*
X624799Y1013699D02*
X653799D01*
X7239Y943599*
X6985Y687099D02*
Y916399D01*
X616699Y998199D02*
X6985Y916399D01*
X549099Y998199D02*
X616699D01*
X747999Y1031199D02*
X780699D01*
X717099D02*
X747999D01*
X747399Y1030599D02*
X747999Y1031199D01*
X746799Y976599D02*
X747399Y977299D01*
Y1030599*
X694699Y994399D02*
Y1013499D01*
X7493Y687099D02*
Y9398D01*
X694699Y994399D02*
X7493Y9398D01*
X624099Y1014399D02*
X624799Y1013699D01*
X541499Y1005799D02*
X549099Y998199D01*
X538499Y1005799D02*
X541499D01*
X675799Y1031199D02*
X707099D01*
X707399Y1030999D02*
X716799D01*
X707099Y1031199D02*
X707399Y1030999D01*
X716799D02*
X717099Y1031199D01*
X790399Y1030999D02*
X790699Y1031199D01*
X780999Y1030999D02*
X790399D01*
X790699Y1031199D02*
X823099D01*
X780699D02*
X780999Y1030999D01*
X823399D02*
X896499D01*
X633499Y1031199D02*
X633699Y1030999D01*
X674999*
X601999Y1031199D02*
X633499D01*
X1215399Y491499D02*
X1236999Y4699D01*
X333999Y4318D02*
Y570199D01*
X833099Y185399D02*
X897899Y250199D01*
X742899Y185399D02*
X833099D01*
X577799Y020299D02*
X742899Y185399D01*
X858499Y139599D02*
X896599Y1778D01*
X746699Y139599D02*
X858499D01*
X581699Y1778D02*
Y199399D01*
X496599Y732799D02*
X604499D01*
X6223Y714999*
Y687099D02*
Y714999D01*
X333999Y570199D02*
X496599Y732799D01*
X1018499Y486399D02*
X1156999D01*
X851699Y333999D02*
Y355199D01*
X1211599Y4318D02*
Y433499D01*
X1205899Y439199D02*
X1211599Y433499D01*
X1204199Y439199D02*
X1205899D01*
X1156999Y486399D02*
X1204199Y439199D01*
X501699Y3302D02*
Y642599D01*
X5461Y687099*
Y459699D02*
Y534699D01*
X782299Y363199D02*
X798599Y346999D01*
X366799Y424399D02*
X427999Y363199D01*
X636299Y747999D02*
X6731Y7112D01*
Y687099D02*
Y7112D01*
X223499Y486399D02*
X485099Y747999D01*
X636299*
X078499Y432899D02*
X132099Y486399D01*
X223499*
X662899D02*
X6858Y463499D01*
X643899Y383499D02*
X6858Y425399D01*
Y463499*
X617199Y486399D02*
X662899D01*
X5715Y532099D02*
X617199Y486399D01*
X11303Y276899D02*
X1236999Y383499D01*
X789899Y276899D02*
X11303D01*
X750199Y316599D02*
X789899Y276899D01*
X825899Y303899D02*
Y333599D01*
X8255Y303499D02*
X825899Y303899D01*
Y333599D02*
X826299Y333999D01*
X798599Y336399D02*
X800899Y333999D01*
X798599Y336399D02*
Y346999D01*
X359399Y430099D02*
X365099Y424399D01*
X366799*
X359399Y430099D02*
Y4318D01*
X1249099Y528899D02*
X12827Y4953D01*
Y383499D02*
Y4953D01*
X1224999Y528899D02*
X1249099D01*
X848399Y732799D02*
X1021099D01*
X1224999Y528899*
X8255Y687099D02*
Y709899D01*
X848399Y732799*
X1262399Y4318D02*
Y483899D01*
X12319Y514399D02*
X1262399Y483899D01*
X902999Y378499D02*
X1056599D01*
X877099Y333999D02*
Y352599D01*
X902999Y378499*
X1056599D02*
X1102599Y424399D01*
X1109999Y430099D02*
Y4318D01*
X1104199Y424399D02*
X1109999Y430099D01*
X1102599Y424399D02*
X1104199D01*
X750099Y333999D02*
X750199Y333899D01*
Y316599D02*
Y333899D01*
X1236999Y383499D02*
Y4318D01*
X724299Y486799D02*
Y534299D01*
Y486799D02*
X724699Y486399D01*
X7239Y534699D02*
X724299Y534299D01*
X749699Y486799D02*
Y534299D01*
X7493Y534699D02*
X749699Y534299D01*
Y486799D02*
X750099Y486399D01*
X775099Y486799D02*
X775499Y486399D01*
X7747Y534699D02*
X775099Y534299D01*
Y486799D02*
Y534299D01*
X8001Y534699D02*
X800499Y534299D01*
Y486799D02*
Y534299D01*
Y486799D02*
X800899Y486399D01*
X825899Y486799D02*
X826299Y486399D01*
X8255Y534699D02*
X825899Y534299D01*
Y486799D02*
Y534299D01*
X851299Y486799D02*
Y534299D01*
Y486799D02*
X851699Y486399D01*
X8509Y534699D02*
X851299Y534299D01*
X8763Y534699D02*
X876699Y534299D01*
Y486799D02*
Y534299D01*
Y486799D02*
X877099Y486399D01*
X944899Y577799D02*
X1005799D01*
X9017Y534699D02*
X944899Y577799D01*
X1236999Y4318D02*
Y4699D01*
X641199Y411299D02*
X659799Y429899D01*
Y459099*
X628699Y408899D02*
X630999Y411299D01*
X641199*
X628699Y459699D02*
X629299Y459099D01*
X659799*
X628699Y383499D02*
X643899D01*
X5715Y532099D02*
Y534699D01*
X565099Y459699D02*
X603299D01*
X501699Y3302D02*
X581699Y250199D01*
X665499Y333999*
X724699*
X485099Y020299D02*
Y046999D01*
X665499Y227299D02*
X8128D01*
X485099Y046999D02*
X665499Y227299D01*
X510499Y020299D02*
X577799D01*
G54D38*
X811499Y029199D03*
X811899Y253799D03*
X670599Y029199D03*
X779099Y253799D03*
X706099D03*
X670599D03*
G54D39*
X1005799Y577799D03*
G54D40*
X1079599Y577899D03*
G54D41*
X257799Y4318D03*
X232399D03*
X206999D03*
X1109999D03*
X1135399D03*
X1160799D03*
X1211599D03*
X1236999D03*
X1262399D03*
X308599D03*
X333999D03*
X359399D03*
G54D42*
X638399Y1042299D03*
X564799D03*
X859399D03*
X1309599Y364499D03*
X109599D03*
X785699Y1042299D03*
X712099D03*
G54D43*
X681899Y1088799D03*
X643899D03*
X608299D03*
X570299D03*
X864899D03*
X902899D03*
X1315199Y410999D03*
X1353099D03*
X115199D03*
X153099D03*
X791199Y1088799D03*
X829199D03*
X717599D03*
X755599D03*
G54D44*
X675599Y1116299D03*
X650199D03*
X675599Y1061299D03*
X650199D03*
X601999Y1116299D03*
X576599D03*
X601999Y1061299D03*
X576599D03*
X871199D03*
X896599D03*
X871199Y1116299D03*
X896599D03*
X5715Y534699D03*
X5969D03*
X6223D03*
X6477D03*
X6985D03*
X7239D03*
X7493D03*
X7747D03*
X8001D03*
X8255D03*
X8509D03*
X8763D03*
X9017D03*
Y687099D03*
X8763D03*
X8509D03*
X8255D03*
X8001D03*
X7747D03*
X7493D03*
X7239D03*
X6985D03*
X6731D03*
X6477D03*
X6223D03*
X5969D03*
X5715D03*
X5461D03*
X6731Y534699D03*
X581699Y1778D03*
X896599D03*
X1321399Y383499D03*
X1346799D03*
X1321399Y438499D03*
X1346799D03*
X121399Y383499D03*
X146799D03*
X121399Y438499D03*
X146799D03*
X797499Y1061299D03*
X822899D03*
X797499Y1116299D03*
X822899D03*
X7239Y1061299D03*
X7493D03*
X7239Y1116299D03*
X7493D03*
X603299Y459699D03*
Y408899D03*
Y434299D03*
X628699D03*
Y408899D03*
Y383499D03*
Y459699D03*
X658999Y585599D03*
X5969Y562599D03*
X627399Y505499D03*
X746899Y419499D03*
X077299Y431199D03*
X564199Y397999D03*
X231599Y465599D03*
X268499Y371899D03*
X333699Y397599D03*
X1080099Y549499D03*
X1134699Y396599D03*
Y467699D03*
X954999Y331499D03*
X746799Y976599D03*
X571899Y713799D03*
X843299Y1014399D03*
X769899D03*
X694699D03*
X624099D03*
X538499Y1005799D03*
X896799Y1031199D03*
X823099D03*
X747999D03*
X601999D03*
X675799D03*
X746699Y139599D03*
X637499Y252699D03*
X6223Y714999D03*
X954499Y419399D03*
X783599Y363199D03*
X430499Y361899D03*
X308299Y505499D03*
X8255Y303499D03*
X346699Y286999D03*
X12827Y383499D03*
X1217899Y490199D03*
X6604Y458499D03*
X8128Y227299D03*
G54D45*
X724699Y333999D03*
G54D46*
X902499Y486399D03*
X877099D03*
X851699D03*
X826299D03*
X800899D03*
X775499D03*
X750099D03*
X724699D03*
X750099Y333999D03*
X775499D03*
X800899D03*
X826299D03*
X851699D03*
X877099D03*
X902499D03*
G54D47*
X5461Y534699D03*
G54D48*
X970299Y0254D03*
X995299D03*
G54D49*
X897899Y250199D03*
X581699D03*
X603299Y383499D03*
G54D50*
X280199Y087499D03*
X280099Y266899D03*
X1196999Y089799D03*
X1196899Y269199D03*
G54D51*
X670599Y970299D03*
X805199D03*
G54D52*
X510499Y020299D03*
X485099D03*
X459699D03*
M02*