%FSTAX24Y24*%
%MOMM*%
%SFA1B1*%

%IPPOS*%
%ADD10C,0.250000*%
%LNpcb-1*%
%LPD*%
G54D10*
X237799Y041299D02*
D01*
X237897Y038509*
X238189Y035732*
X238673Y032983*
X239349Y030274*
X240212Y027618*
X241258Y02503*
X242481Y02252*
X243877Y020103*
X245439Y017788*
X247158Y015588*
X249026Y013513*
X251034Y011574*
X253173Y009779*
X255432Y008138*
X257799Y006658*
X260264Y005348*
X262815Y004212*
X265439Y003257*
X268122Y002487*
X270853Y001907*
X273618Y001518*
X276403Y001324*
X277799Y001299*
X1197799D02*
D01*
X120059Y001397*
X1203366Y001689*
X1206116Y002173*
X1208825Y002849*
X121148Y003712*
X1214069Y004757*
X1216578Y005981*
X1218996Y007377*
X1221311Y008939*
X1223511Y010658*
X1225586Y012526*
X1227525Y014534*
X122932Y016673*
X1230961Y018932*
X123244Y021299*
X1233751Y023765*
X1234887Y026315*
X1235842Y028939*
X1236611Y031623*
X1237192Y034354*
X123758Y037118*
X1237775Y039903*
X1237799Y041299*
X237899Y317199D02*
D01*
X237844Y31879*
X237677Y320372*
X237401Y32194*
X237016Y323484*
X236524Y324997*
X235928Y326473*
X235231Y327903*
X234435Y329282*
X233545Y330601*
X232565Y331855*
X2315Y333038*
X230356Y334143*
X229136Y335166*
X227849Y336101*
X226499Y336945*
X225094Y337692*
X22364Y338339*
X222145Y338884*
X220615Y339322*
X219058Y339653*
X217483Y339874*
X215895Y339985*
X215099Y339999*
X1257199Y341099D02*
D01*
X1255839Y341052*
X1254485Y34091*
X1253145Y340673*
X1251825Y340344*
X125053Y339923*
X1249268Y339414*
X1248045Y338817*
X1246866Y338136*
X1245738Y337375*
X1244665Y336537*
X1243654Y335626*
X1242708Y334647*
X1241833Y333605*
X1241033Y332504*
X1240312Y331349*
X1239673Y330148*
X1239119Y328904*
X1238654Y327625*
X1238279Y326317*
X1237996Y324985*
X1237806Y323638*
X1237711Y32228*
X1237699Y321599*
X001299Y358299D02*
D01*
X001466Y356915*
X00173Y355546*
X002088Y354199*
X002539Y35288*
X003081Y351596*
X003711Y350352*
X004427Y349156*
X005224Y348012*
X006099Y346927*
X007048Y345906*
X008066Y344953*
X009147Y344073*
X010287Y343271*
X011481Y342551*
X012722Y341916*
X014004Y341368*
X015321Y340912*
X016667Y340548*
X018035Y340279*
X019418Y340107*
X02081Y340031*
X021299Y339999*
X124899Y490999D02*
D01*
X111959Y48577*
X099414Y479651*
X087327Y472672*
X075757Y464867*
X064759Y456273*
X054387Y446934*
X044692Y436893*
X035721Y426201*
X027518Y414909*
X020122Y403072*
X01357Y390749*
X007894Y377998*
X003121Y364882*
X001299Y358799*
X414399Y1041199D02*
D01*
X413123Y1039562*
X411963Y103784*
X410927Y1036042*
X410018Y1034175*
X409242Y1032249*
X408602Y1030275*
X408101Y102826*
X407742Y1026215*
X407527Y102415*
X407456Y1022075*
X407531Y1020001*
X407749Y1017936*
X408111Y1015892*
X408615Y1013878*
X409258Y1011904*
X410038Y100998*
X410949Y1008115*
X411989Y1006318*
X413151Y1004597*
X41443Y1002962*
X415821Y1001421*
X417315Y99998*
X418907Y998647*
X420587Y997428*
X422349Y996329*
X424183Y995356*
X42608Y994513*
X428031Y993804*
X430027Y993234*
X432058Y992804*
X434114Y992517*
X436186Y992374*
X437199Y992299*
X542599Y1141699D02*
D01*
X538742Y1141565*
X534903Y1141161*
X531102Y1140491*
X527357Y1139557*
X523686Y1138364*
X520107Y1136918*
X516638Y1135226*
X513295Y1133296*
X510095Y1131138*
X507053Y1128762*
X504185Y1126179*
X501503Y1123402*
X500199Y1121999*
X974799D02*
D01*
X972213Y112487*
X969432Y1127554*
X966471Y1130037*
X963344Y1132307*
X960066Y1134354*
X956654Y1136167*
X953123Y1137738*
X949491Y1139058*
X945777Y1140122*
X941996Y1140925*
X93817Y1141461*
X934315Y114173*
X932399Y1141699*
X827199Y810599D02*
D01*
X827297Y807809*
X827589Y805032*
X828074Y802283*
X828749Y799574*
X829612Y796919*
X830657Y79433*
X831882Y791821*
X833277Y789403*
X834839Y787088*
X836558Y784888*
X838426Y782813*
X840434Y780873*
X842573Y779079*
X844832Y777438*
X847199Y775958*
X849665Y774648*
X852215Y773512*
X854839Y772557*
X857523Y771788*
X860254Y771207*
X863018Y770818*
X865803Y770624*
X867199Y770599*
X607799Y769399D02*
D01*
X61059Y769497*
X613366Y769789*
X616116Y770274*
X618825Y770949*
X62148Y771812*
X624069Y772857*
X626578Y774082*
X628996Y775478*
X631311Y777039*
X633511Y778758*
X635586Y780626*
X637525Y782634*
X63932Y784773*
X640961Y787032*
X64244Y789399*
X643751Y791865*
X644887Y794415*
X645842Y797039*
X646611Y799723*
X647192Y802454*
X64758Y805218*
X647775Y808003*
X647799Y809399*
X1452399Y340399D02*
D01*
X1453794Y340448*
X1455183Y340594*
X1456558Y340837*
X1457912Y341174*
X145924Y341606*
X1460534Y342128*
X1461789Y34274*
X1462998Y343438*
X1464155Y344219*
X1465255Y345079*
X1466292Y346013*
X1467262Y347017*
X146816Y348086*
X146898Y349215*
X146972Y350399*
X1470375Y351632*
X1470943Y352907*
X147142Y354219*
X1471805Y355561*
X1472096Y356926*
X147229Y358309*
X1472387Y359701*
X1472399Y360399*
D01*
X1468039Y373664*
X1462764Y386592*
X14566Y39912*
X1449577Y411188*
X144173Y422736*
X1433095Y433709*
X1423717Y444053*
X141364Y453718*
X1402913Y462656*
X1391589Y470824*
X1379723Y478182*
X1367372Y484695*
X1354597Y49033*
X1348699Y492599*
X1220299Y557099D02*
D01*
X1225598Y552556*
X1231201Y548394*
X1237081Y544632*
X1243209Y54129*
X1249555Y538383*
X1256088Y535926*
X1262199Y534099*
X1017099Y743999D02*
D01*
X10118Y748543*
X1006197Y752705*
X1000318Y756467*
X99419Y759809*
X987844Y762716*
X98131Y765172*
X974622Y767168*
X96781Y768691*
X960909Y769736*
X953951Y770297*
X949399Y770399*
X213499Y532999D02*
D01*
X220175Y535034*
X226692Y53753*
X23302Y540474*
X239127Y543853*
X244983Y547649*
X25056Y551845*
X255499Y555999*
X526299Y769399D02*
D01*
X519324Y769156*
X512382Y768426*
X505508Y767214*
X498736Y765526*
X492097Y763369*
X485626Y760754*
X479352Y757694*
X473307Y754204*
X467521Y750301*
X462021Y746004*
X458599Y742999*
X1037799Y992099D02*
D01*
X1039892Y992173*
X1041975Y992391*
X1044037Y992755*
X1046069Y993261*
X104806Y993909*
X1050001Y994693*
X1051884Y995611*
X1053697Y996658*
X1055433Y997829*
X1057083Y999118*
X1058639Y1000519*
X1060094Y1002025*
X106144Y1003629*
X106267Y1005324*
X106378Y1007099*
X1064763Y1008948*
X1065615Y1010861*
X1066331Y1012829*
X1066908Y1014842*
X1067344Y101689*
X1067635Y1018963*
X1067781Y1021052*
Y1023146*
X1067635Y1025235*
X1067344Y1027309*
X1066908Y1029357*
X1066331Y103137*
X1065615Y1033338*
X1064763Y103525*
X106378Y1037099*
X106267Y1038875*
X106144Y1040569*
X1060699Y1041299*
X647799Y936999D02*
D01*
X647665Y940857*
X647261Y944696*
X646591Y948497*
X645657Y952242*
X644464Y955913*
X643019Y959492*
X641326Y962961*
X639396Y966304*
X637238Y969504*
X634862Y972545*
X632279Y975414*
X629502Y978095*
X626545Y980576*
X623423Y982845*
X620149Y984891*
X616741Y986703*
X613215Y988273*
X609588Y989593*
X605878Y990657*
X602102Y991459*
X59828Y991997*
X594429Y992266*
X592499Y992299*
X883099Y992099D02*
D01*
X879242Y991965*
X875403Y991561*
X871602Y990891*
X867857Y989957*
X864186Y988764*
X860607Y987318*
X857137Y985626*
X853795Y983697*
X850595Y981538*
X847553Y979162*
X844685Y976579*
X842003Y973802*
X839522Y970845*
X837254Y967723*
X835208Y964449*
X833396Y961041*
X831826Y957515*
X830506Y953888*
X829442Y950178*
X828639Y946402*
X828102Y94258*
X827833Y938729*
X827699Y936799*
X542599Y1141699D02*
X932399D01*
X827299Y808999D02*
X827799Y936999D01*
X237899Y040399D02*
Y317199D01*
X021199Y339999D02*
X214999D01*
X277799Y001299D02*
X1197799D01*
X12573Y341099D02*
X1453099Y340599D01*
X1237799Y041599D02*
Y321599D01*
X124699Y490899D02*
X212999Y532799D01*
X1262199Y534099D02*
X1348999Y492499D01*
X414299Y1041299D02*
X414399Y1041199D01*
X413999Y1041099D02*
X499999Y1121599D01*
X974999D02*
X1060999Y1041099D01*
X867199Y770599D02*
X948699Y770399D01*
X647799Y808599D02*
Y936999D01*
X526299Y769399D02*
X607799D01*
X1017099Y743999D02*
X1220299Y557099D01*
X255499Y555999D02*
X458599Y742999D01*
X437199Y992299D02*
X592199D01*
X882799Y992099D02*
X1037799D01*
M02*