%FSTAX24Y24*%
%MOMM*%
%SFA1B1*%

%IPPOS*%
%ADD16R,1.549997X1.299997*%
%ADD17R,0.899998X1.449997*%
%ADD18R,1.449997X0.899998*%
%ADD37C,0.759998*%
%ADD38R,2.399995X2.399995*%
%ADD39R,2.499995X2.499995*%
%ADD40C,2.499995*%
%ADD41O,1.999996X2.999994*%
%ADD42C,0.999998*%
%ADD43C,2.499995*%
%ADD44C,1.999996*%
%ADD45R,1.999996X2.499995*%
%ADD46O,1.999996X2.499995*%
%ADD47R,1.999996X1.999996*%
%ADD48O,1.999996X2.999994*%
%ADD49R,1.999996X1.999996*%
%ADD50C,1.519997*%
%ADD51C,1.699997*%
%ADD52O,1.999996X2.499995*%
%LNpcb-1*%
%LPD*%
G36*
X1470699Y0D02*
X0D01*
Y1143*
X001299Y1144299*
X1470699*
Y0*
G37*
%LNpcb-2*%
%LPC*%
G36*
X618899Y1133199D02*
X560499D01*
Y1124599*
X554799*
X554299Y1124699*
X553799Y1124599*
X543699*
Y1107599*
X560499*
Y1102099*
X559799Y1101599*
X557499Y1099299*
X555699Y1096599*
X554399Y1093599*
X553799Y1090499*
Y1087199*
X554399Y1083999*
X555699Y1080999*
X557499Y1078299*
X559799Y1075999*
X560499Y1075499*
Y1050299*
X559299Y1049499*
X557599Y1047899*
X556399Y1045799*
X555799Y1043499*
Y1041099*
X556399Y1038899*
X557599Y1036799*
X557999Y1036399*
X557299Y1035299*
X555499Y1034999*
X553599Y1034299*
X551999Y1032999*
X538799Y1019799*
X536599*
X533099Y1018899*
X529899Y1016999*
X527299Y1014399*
X525399Y1011199*
X524499Y1007699*
Y1003999*
X525399Y1000399*
X527299Y997199*
X529899Y994599*
X533099Y992799*
X536599Y991799*
X540299*
X543899Y992799*
X547099Y994599*
X549699Y997199*
X551499Y1000399*
X552499Y1003999*
Y1007699*
X551699Y1010499*
X560799Y1019599*
X565299*
Y1018899*
X587799*
Y1025199*
X589099Y1025499*
X590799Y1022599*
X593399Y1019999*
X596599Y1018199*
X600099Y1017199*
X603799*
X607399Y1018199*
X6096Y1019499*
X610699Y1018599*
X610099Y1016299*
Y1012599*
X610999Y1008999*
X612899Y1005799*
X615499Y1003199*
X618699Y1001399*
X622199Y1000399*
X625899*
X629499Y1001399*
X632699Y1003199*
X635299Y1005799*
X637099Y1008999*
X638099Y1012599*
Y1016299*
X637699Y1017699*
X638699Y1018999*
X638999Y1018899*
X661499*
Y1025599*
X662699Y1025799*
X664599Y1022599*
X667199Y1019999*
X670399Y1018199*
X673899Y1017199*
X677599*
X679799Y1017799*
X680799Y1016799*
X680699Y1016299*
Y1012599*
X681599Y1008999*
X683499Y1005799*
X686099Y1003199*
X689299Y1001399*
X692799Y1000399*
X696499*
X700099Y1001399*
X703299Y1003199*
X705899Y1005799*
X707699Y1008999*
X708699Y1012599*
Y1016299*
X711399Y1018999*
X712599Y1018899*
X735099*
Y1023099*
X736399Y1023399*
X736799Y1022599*
X739399Y1019999*
X742599Y1018199*
X746199Y1017199*
X749899*
X753399Y1018199*
X755499Y1019399*
X756599Y1018499*
X755899Y1016299*
Y1012599*
X756899Y1008999*
X758699Y1005799*
X761399Y1003199*
X764499Y1001399*
X768099Y1000399*
X771799*
X775399Y1001399*
X778499Y1003199*
X781199Y1005799*
X782999Y1008999*
X783899Y1012599*
Y1016299*
X783299Y1018499*
X784099Y1019599*
X786299*
Y1018899*
X808799*
Y1025599*
X810099Y1025799*
X811899Y1022599*
X814499Y1019999*
X817699Y1018199*
X821299Y1017199*
X824899*
X828499Y1018199*
X828599*
X829599Y1017499*
X829299Y1016299*
Y1012599*
X830199Y1008999*
X832099Y1005799*
X834699Y1003199*
X837899Y1001399*
X841399Y1000399*
X845099*
X848699Y1001399*
X851899Y1003199*
X854499Y1005799*
X856299Y1008999*
X857299Y1012599*
Y1016299*
X856699Y1018499*
X857399Y1019599*
X859999*
Y1018899*
X882499*
Y1025599*
X883699Y1025799*
X885599Y1022599*
X888199Y1019999*
X891399Y1018199*
X894899Y1017199*
X898599*
X902199Y1018199*
X905399Y1019999*
X907999Y1022599*
X909799Y1025799*
X910799Y1029399*
Y1033099*
X909799Y1036599*
X907999Y1039799*
X905399Y1042399*
X904499Y1042899*
Y1044299*
X913599*
Y1076099*
X915699Y1078299*
X917499Y1080999*
X918799Y1083999*
X919399Y1087199*
Y1090499*
X918799Y1093599*
X917499Y1096599*
X915699Y1099299*
X913599Y1101499*
Y1131999*
X855099*
Y1124599*
X839899*
Y1131999*
X781499*
Y1124599*
X766199*
Y1131999*
X707799*
Y1124599*
X692599*
Y1131999*
X634199*
Y1124799*
X628499*
X627999Y1124899*
X627399Y1124799*
X618899*
Y1133199*
G37*
G36*
X806799Y986299D02*
X803599D01*
X800499Y985699*
X797599Y984499*
X794999Y982699*
X792799Y980499*
X790999Y9779*
X789799Y974899*
X789199Y971899*
Y968699*
X789799Y965599*
X790999Y962699*
X792799Y960099*
X794999Y957899*
X797599Y956099*
X800499Y954899*
X803599Y954299*
X806799*
X809799Y954899*
X8128Y956099*
X815399Y957899*
X817599Y960099*
X819399Y962699*
X820599Y965599*
X821199Y968699*
Y971899*
X820599Y974899*
X819399Y9779*
X817599Y980499*
X815399Y982699*
X8128Y984499*
X809799Y985699*
X806799Y986299*
G37*
G36*
X672099D02*
X668999D01*
X665899Y985699*
X662999Y984499*
X6604Y982699*
X658099Y980499*
X656399Y9779*
X655199Y974899*
X654599Y971899*
Y968699*
X655199Y965599*
X656399Y962699*
X658099Y960099*
X6604Y957899*
X662999Y956099*
X665899Y954899*
X668999Y954299*
X672099*
X675199Y954899*
X678099Y956099*
X680799Y957899*
X682999Y960099*
X684699Y962699*
X685899Y965599*
X686599Y968699*
Y971899*
X685899Y974899*
X684699Y9779*
X682999Y980499*
X680799Y982699*
X678099Y984499*
X675199Y985699*
X672099Y986299*
G37*
G36*
X748599Y9906D02*
X744899D01*
X741399Y989699*
X738199Y987799*
X735599Y985199*
X733699Y981999*
X732799Y978499*
Y974799*
X733699Y971199*
X735599Y967999*
X738199Y965399*
X738899Y964999*
Y736999*
X724699Y722899*
X633899*
X633499Y723599*
X630899Y726199*
X627699Y728099*
X624099Y728999*
X620499*
X616899Y728099*
X613699Y726199*
X611099Y723599*
X609299Y720399*
X608299Y716899*
Y713199*
X609299Y709599*
X611099Y706399*
X613699Y703799*
X616299Y702299*
X615999Y700999*
X598899*
X598699Y701099*
X595099*
X594899Y700999*
X582899*
Y688999*
Y688899*
Y685199*
Y685099*
Y671799*
X868399*
Y648999*
X868699Y646899*
X869499Y644999*
X870699Y643399*
X944599Y569499*
Y504899*
X906099Y466299*
X671999*
X671599Y467099*
X668999Y469699*
X665799Y471499*
X662199Y472499*
X658599*
X654999Y471499*
X651799Y469699*
X649199Y467099*
X647399Y463899*
X646399Y460299*
Y456599*
X647399Y453099*
X649199Y449899*
X651799Y447299*
X654999Y445399*
X658599Y4445*
X662199*
X665799Y445399*
X668999Y447299*
X671599Y449899*
X671999Y450599*
X909299*
X911399Y450899*
X913299Y451599*
X914899Y452899*
X958099Y496099*
X959299Y497699*
X960099Y499599*
X960399Y501699*
Y572799*
X960099Y574799*
X959299Y576699*
X958099Y578299*
X884199Y652199*
Y671799*
X918199*
Y700999*
X903699*
X903499Y701099*
X899899*
X899699Y700999*
X878299*
X878099Y701099*
X874499*
X874299Y700999*
X852899*
X852699Y701099*
X849099*
X848899Y700999*
X827499*
X827299Y701099*
X823699*
X823499Y700999*
X802099*
X801899Y701099*
X798299*
X798099Y700999*
X776699*
X776499Y701099*
X772899*
X772699Y700999*
X751299*
X751099Y701099*
X747499*
X747299Y700999*
X725899*
X725699Y701099*
X722099*
X721899Y700999*
X700499*
X700299Y701099*
X696699*
X696499Y700999*
X675099*
X674899Y701099*
X671299*
X671099Y700999*
X649699*
X649499Y701099*
X645899*
X645699Y700999*
X628599*
X628299Y702299*
X630899Y703799*
X633499Y706399*
X633899Y707099*
X988599*
X1203899Y491799*
Y488399*
X1204899Y484799*
X1206699Y481599*
X1209299Y478999*
X1212499Y477199*
X1216099Y476199*
X1219799*
X1223299Y477199*
X1226499Y478999*
X1229099Y481599*
X1230299Y483599*
X1337899*
X1354799Y466599*
Y455399*
X1354499Y454999*
X1331299*
X1330799Y456099*
Y478599*
X1313799*
Y462199*
Y462099*
Y454999*
X1304699*
Y423899*
X1304599*
X1302299Y421599*
X1300499Y418899*
X1299299Y415899*
X1298699Y412699*
Y409399*
X1299299Y406199*
X1300499Y403199*
X1302299Y400499*
X1304599Y398199*
X1304699*
Y391399*
X1294299*
X1293899Y392099*
X1291299Y394699*
X1288099Y396599*
X1284499Y397499*
X1280899*
X1277299Y396599*
X1274099Y394699*
X1271499Y392099*
X1269699Y388899*
X1268699Y385399*
Y381699*
X1269699Y378099*
X1271499Y374899*
X1274099Y372299*
X1277299Y370499*
X1280899Y369499*
X1284499*
X1288099Y370499*
X1291299Y372299*
X1293899Y374899*
X1294299Y375699*
X1304699*
Y372099*
X1304099Y371699*
X1302399Y370099*
X1301299Y367999*
X1300599Y365699*
Y363399*
X1301299Y361099*
X1302399Y358999*
X1304099Y357299*
X1306199Y356199*
X1308499Y355499*
X1310799*
X1313099Y356199*
X1315199Y357299*
X1316899Y358999*
X1317999Y361099*
X1318599Y363399*
Y365699*
X1318499Y366399*
X1319199Y367399*
X1323099*
X1327499Y362999*
X1327099Y361799*
X1319499*
Y341799*
X13335*
Y354599*
X1334799Y355199*
X1335299Y354799*
Y352499*
X1335399Y351999*
Y340499*
X1352399*
Y362999*
X1349499*
X1348799Y363999*
X1346499Y366199*
X1346999Y367399*
X1363099*
Y375699*
X1369099*
X1371099Y375899*
X1371899Y376299*
X1372999Y376699*
X1374599Y377999*
X1392399Y395699*
X1393699Y397399*
X1394399Y399299*
X1394699Y401299*
Y427999*
X1394399Y429999*
X1393699Y431899*
X1392399Y433599*
X1370599Y455399*
Y4699*
X1370299Y471899*
X1369499Y473799*
X1368299Y475499*
X1346699Y497099*
X1345099Y498299*
X1343199Y499099*
X1341099Y499399*
X1259499*
X1193299Y524699*
X997399Y720599*
X995799Y721799*
X993899Y722599*
X991899Y722899*
X766799*
X754599Y736499*
Y964999*
X755399Y965399*
X757999Y967999*
X759799Y971199*
X760799Y974799*
Y978499*
X759799Y981999*
X757999Y985199*
X755399Y987799*
X752199Y989699*
X748599Y9906*
G37*
G36*
X547899Y701099D02*
X544299D01*
X544099Y700999*
X529599*
Y670599*
X561299*
Y700999*
X548099*
X547899Y701099*
G37*
G36*
X486399Y601999D02*
X375899Y600699D01*
Y572799*
X486399*
Y577699*
X647399*
X647799Y576999*
X650499Y574299*
X653599Y572499*
X657199Y5715*
X660899*
X664499Y572499*
X667599Y574299*
X670299Y576999*
X672099Y580099*
X6731Y583699*
Y587399*
X672099Y590999*
X670299Y594099*
X667599Y596799*
X664499Y598599*
X660899Y599599*
X657199*
X653599Y598599*
X650499Y596799*
X647799Y594099*
X647399Y593399*
X486399*
Y601999*
G37*
G36*
X1023599Y5969D02*
X988099D01*
Y560099*
X1023599*
Y5969*
G37*
G36*
X632499Y549999D02*
Y520799D01*
X645399*
X645899Y5207*
X649499*
X649999Y520799*
X670799*
X671299Y5207*
X674899*
X675399Y520799*
X696199*
X696699Y5207*
X700299*
X700799Y520799*
X721599*
X722099Y5207*
X725699*
X726199Y520799*
X746999*
X747499Y5207*
X751099*
X751599Y520799*
X772399*
X772899Y5207*
X776499*
X776999Y520799*
X797799*
X798299Y5207*
X801899*
X802399Y520799*
X823199*
X823699Y5207*
X827299*
X827799Y520799*
X848599*
X849099Y5207*
X852699*
X853199Y520799*
X873999*
X874499Y5207*
X878099*
X878599Y520799*
X899399*
X899899Y5207*
X903499*
X903999Y520799*
X916899*
Y548699*
X632499Y549999*
G37*
G36*
X612099Y549899D02*
X530899D01*
Y5207*
X532099*
X560099*
X569499*
X569699*
X573299*
X573499*
X594899*
X595099*
X598699*
X598899*
X612099*
Y549899*
G37*
G36*
X877099Y502999D02*
X8763Y502899D01*
X852599*
X851699Y502999*
X8509Y502899*
X827199*
X826299Y502999*
X8255Y502899*
X801799*
X800899Y502999*
X8001Y502899*
X776399*
X775499Y502999*
X7747Y502899*
X750999*
X750099Y502999*
X7493Y502899*
X725599*
X724699Y502999*
X7239Y502899*
X708699*
Y468599*
X891499*
Y502899*
X877999*
X877099Y502999*
G37*
G36*
X310099Y519499D02*
X306399D01*
X302899Y518599*
X299699Y516699*
X297099Y514099*
X295199Y510899*
X294299Y507399*
Y503699*
X295199Y500099*
X297099Y496899*
X299699Y494299*
X302899Y492499*
X306399Y491499*
X310099*
X313699Y492499*
X316899Y494299*
X319499Y496899*
X319899Y497599*
X615699*
X616199Y496899*
X618799Y494299*
X621999Y492399*
X625499Y491499*
X629199*
X632799Y492399*
X635999Y494299*
X638599Y496899*
X640399Y500099*
X641399Y503599*
Y507299*
X640399Y510899*
X638599Y514099*
X635999Y516699*
X632799Y518499*
X629199Y519499*
X625499*
X621999Y518499*
X618799Y516699*
X616199Y514099*
X615799Y513399*
X319899*
X319499Y514099*
X316899Y516699*
X313699Y518599*
X310099Y519499*
G37*
G36*
X630499Y473699D02*
X626799D01*
X626699*
X605199*
X605099*
X601399*
X601299*
X587999*
Y394999*
X601299*
X601399Y394899*
X605099*
X605199Y394999*
X614699*
Y385499*
Y385399*
Y381699*
Y381599*
Y371099*
X441199*
X439099Y373199*
X435899Y374999*
X432399Y375999*
X428699*
X425099Y374999*
X421899Y373199*
X419299Y370499*
X417499Y367399*
X416499Y363799*
Y360099*
X417499Y356499*
X419299Y353399*
X421899Y350699*
X425099Y348899*
X428699Y347899*
X432399*
X435899Y348899*
X439099Y350699*
X441699Y353399*
X442899Y355299*
X771999*
X772399Y354599*
X774999Y351999*
X778199Y350199*
X781699Y349199*
X785399*
X785999Y348799*
Y3175*
X8001*
X800899Y317399*
X801799Y3175*
X819199*
X819499Y316199*
X816899Y314699*
X814299Y312099*
X812499Y308899*
X811499Y305399*
Y301699*
X811699Y300899*
X806999Y296199*
X357399*
X355299Y298199*
X352099Y300099*
X348599Y300999*
X344899*
X341299Y300099*
X338099Y298199*
X335499Y295599*
X333699Y292399*
X332699Y288899*
Y285199*
X333699Y281599*
X335499Y278399*
X338099Y275799*
X341299Y273999*
X344899Y272999*
X348599*
X352099Y273999*
X355299Y275799*
X357899Y278399*
X359099Y280399*
X810299*
X812299Y280699*
X814199Y281499*
X815799Y282699*
X822899Y289699*
X823699Y289499*
X827299*
X830899Y290499*
X834099Y292299*
X836699Y294899*
X838499Y298099*
X839499Y301699*
Y305399*
X838499Y308899*
X836699Y312099*
X834099Y314699*
X831499Y316199*
X831799Y3175*
X8509*
X851699Y317399*
X852599Y3175*
X8763*
X877099Y317399*
X877999Y3175*
X891399*
Y351799*
X793799*
X793199Y353099*
X794799Y354599*
X796599Y357799*
X797599Y361399*
Y365099*
X796599Y368599*
X794799Y371799*
X792199Y374399*
X788999Y376299*
X785399Y377199*
X781699*
X778199Y376299*
X774999Y374399*
X772399Y371799*
X771999Y371099*
X643899*
Y473699*
X630599*
X630499*
G37*
G36*
X1262399Y450899D02*
X1261799Y450799D01*
X1237499*
X1236999Y450899*
X1236399Y450799*
X1212099*
X1211599Y450899*
X1210999Y450799*
X1161299*
X1160799Y450899*
X1160199Y450799*
X1146799*
Y437999*
X1146599Y436799*
Y426799*
X1146799Y425599*
Y412799*
X1160199*
X1160799Y412699*
X1161299Y412799*
X1210999*
X1211599Y412699*
X1212099Y412799*
X1236399*
X1236999Y412699*
X1237499Y412799*
X1261799*
X1262399Y412699*
X1262899Y412799*
X1276399*
Y425699*
X1276499Y426799*
Y436799*
X1276399Y437899*
Y450799*
X1262899*
X1262399Y450899*
G37*
G36*
X1123899Y450999D02*
X1094699D01*
Y411599*
X1123899*
Y425799*
X1124099Y426799*
Y436799*
X1123899Y437799*
Y450999*
G37*
G36*
X748799Y433499D02*
X745099D01*
X741499Y432599*
X738299Y430699*
X735699Y428099*
X733899Y424899*
X732899Y421399*
Y417699*
X733899Y414099*
X735699Y410899*
X738299Y408299*
X741499Y406499*
X745099Y405499*
X748799*
X752299Y406499*
X755499Y408299*
X758099Y410899*
X758399Y411499*
X942899*
X943299Y410799*
X945899Y408199*
X949099Y406299*
X952699Y405399*
X956399*
X959899Y406299*
X963099Y408199*
X965699Y410799*
X967599Y413999*
X968499Y417499*
Y421199*
X967599Y424799*
X965699Y427999*
X963099Y430599*
X959899Y432399*
X956399Y433399*
X952699*
X949099Y432399*
X945899Y430599*
X943299Y427999*
X942899Y427199*
X758599*
X758099Y428099*
X755499Y430699*
X752299Y432599*
X748799Y433499*
G37*
G36*
X130199Y474799D02*
X113199D01*
Y452299*
X111999Y452099*
X105399*
Y424399*
X104599Y423899*
X102299Y421599*
X100499Y418899*
X099299Y415899*
X098699Y412699*
Y409399*
X099299Y406199*
X100499Y403199*
X102299Y400499*
X104599Y398199*
X105399Y397699*
Y391399*
X103599*
X087499Y407499*
Y421599*
X088499Y422599*
X090299Y425799*
X091299Y429399*
Y432999*
X090299Y436599*
X088499Y439799*
X085899Y442399*
X082699Y444199*
X079099Y445199*
X075399*
X071899Y444199*
X068699Y442399*
X066099Y439799*
X064199Y436599*
X063299Y432999*
Y429399*
X064199Y425799*
X066099Y422599*
X068699Y419999*
X071799Y418199*
Y404199*
X071999Y402199*
X072799Y400299*
X074099Y398699*
X094799Y377999*
X096399Y376699*
X098299Y375899*
X100299Y375699*
X105399*
Y372499*
X104099Y371699*
X102399Y370099*
X101299Y367999*
X100599Y365699*
Y363399*
X101299Y361099*
X102399Y358999*
X104099Y357299*
X106199Y356199*
X108499Y355499*
X110799*
X113099Y356199*
X115199Y357299*
X115999Y358099*
X117199Y357599*
Y345599*
X134199*
Y364499*
X163799*
Y375799*
X164599Y375899*
X166499Y376699*
X168099Y377999*
X179899Y389699*
X321999*
X322499Y388999*
X325099Y386399*
X328299Y384499*
X331799Y383599*
X335499*
X339099Y384499*
X342299Y386399*
X344899Y388999*
X346699Y392199*
X347699Y395699*
Y399399*
X346699Y402999*
X344899Y406199*
X342299Y408799*
X339099Y410599*
X335499Y411599*
X335299*
X335199Y412799*
X337699Y413199*
X338399Y413499*
X355099*
X355799Y413199*
X359399Y412699*
X363099Y413199*
X363799Y413499*
X373599*
Y451599*
X244099*
Y439899*
X243699Y436799*
Y426799*
X244099Y423699*
Y413499*
X253499*
X254199Y413199*
X257799Y412699*
X261499Y413199*
X262199Y413499*
X304299*
X304999Y413199*
X308599Y412699*
X312299Y413199*
X312999Y413499*
X329699*
X330399Y413199*
X332799Y412799*
X332699Y411599*
X331799*
X328299Y410599*
X325099Y408799*
X322499Y406199*
X321999Y405399*
X212499*
X206899Y410999*
X207399Y412199*
X221199*
Y451599*
X191999*
Y427499*
X190799Y427099*
X184299Y433599*
X183399Y434799*
X174099Y444099*
X172499Y445399*
X170599Y446099*
X168499Y446399*
X163799*
Y452099*
X150299*
X148699Y452499*
X144999*
X143399Y452099*
X131399*
X130199Y452299*
Y474799*
G37*
G36*
X765799Y353099D02*
X708699D01*
Y316199*
X765799*
Y353099*
G37*
G36*
X1198699Y283199D02*
X1194999D01*
X1191499Y282199*
X1188299Y280399*
X1185699Y277799*
X1183799Y274599*
X1182899Y270999*
Y267299*
X1183799Y263799*
X1185699Y260599*
X1188299Y257999*
X1191499Y256099*
X1194999Y255199*
X1198699*
X1202299Y256099*
X1205499Y257999*
X1208099Y260599*
X1209899Y263799*
X1210899Y267299*
Y270999*
X1209899Y274599*
X1208099Y277799*
X1205499Y280399*
X1202299Y282199*
X1198699Y283199*
G37*
G36*
X281999Y280899D02*
X278299D01*
X274699Y279999*
X271499Y278099*
X268899Y275499*
X267099Y272299*
X266099Y268799*
Y265099*
X267099Y261499*
X268899Y258299*
X271499Y255699*
X274699Y253899*
X278299Y252899*
X281999*
X285499Y253899*
X288699Y255699*
X291299Y258299*
X293199Y261499*
X294099Y265099*
Y268799*
X293199Y272299*
X291299Y275499*
X288699Y278099*
X285499Y279999*
X281999Y280899*
G37*
G36*
X9144Y267299D02*
X881399D01*
Y232999*
X9144*
Y267299*
G37*
G36*
X598199Y2667D02*
X565099D01*
Y232399*
X598199*
Y2667*
G37*
G36*
X1198799Y103799D02*
X1195099D01*
X1191599Y102799*
X1188399Y100999*
X1185799Y098399*
X1183899Y095199*
X1182999Y091599*
Y087899*
X1183899Y084399*
X1185799Y081199*
X1188399Y078599*
X1191599Y076699*
X1195099Y075799*
X1198799*
X1202399Y076699*
X1205599Y078599*
X1208199Y081199*
X1209999Y084399*
X1210999Y087899*
Y091599*
X1209999Y095199*
X1208199Y098399*
X1205599Y100999*
X1202399Y102799*
X1198799Y103799*
G37*
G36*
X282099Y101499D02*
X278399D01*
X274799Y100599*
X271599Y098699*
X268999Y096099*
X267199Y092899*
X266199Y089399*
Y085699*
X267199Y082099*
X268999Y078899*
X271599Y076299*
X274799Y074499*
X278399Y073499*
X282099*
X285599Y074499*
X288799Y076299*
X291399Y078899*
X293299Y082099*
X294199Y085699*
Y089399*
X293299Y092899*
X291399Y096099*
X288799Y098699*
X285599Y100599*
X282099Y101499*
G37*
G36*
X827999Y048299D02*
X792499D01*
Y010199*
X827999*
Y048299*
G37*
G36*
X688299Y046999D02*
X652799D01*
Y008899*
X688299*
Y046999*
G37*
G36*
X827999Y271799D02*
X688299D01*
Y236199*
X712499*
X928899Y019799*
X930599Y018599*
X932499Y017799*
X934499Y017499*
X946099*
Y002499*
X1019799*
Y058399*
X1003199*
Y065199*
X1002899Y067199*
X1002099Y069099*
X1000899Y070699*
X924599Y146999*
X922999Y148199*
X921899Y148699*
X921099Y148999*
X918999Y149299*
X875299*
X812399Y212199*
X812899Y213299*
X814599*
X818199Y214299*
X818799Y214599*
X827999*
Y271799*
G37*
G36*
X530899Y039399D02*
X439399D01*
Y001299*
X530899*
Y039399*
G37*
%LNpcb-3*%
%LPD*%
G36*
X747399Y738499D02*
X767299Y716199D01*
X766799Y714999*
X724299*
X723799Y716199*
X746099Y738499*
X747399*
G37*
G36*
X1265499Y492699D02*
X1265199Y491499D01*
X1215399*
X1184499Y522399*
X1185199Y523399*
X1265499Y492699*
G37*
G36*
X191999Y420099D02*
Y412199D01*
X199999*
X212199Y399999*
X211699Y398799*
X179099*
Y431399*
X180199Y431899*
X191999Y420099*
G37*
G54D16*
X472399Y540499D03*
X389399Y585499D03*
Y540499D03*
X472399Y585499D03*
G54D17*
X1322299Y467399D03*
X1304299D03*
X1343899Y351799D03*
X1325899D03*
X125699Y356899D03*
X143699D03*
X121699Y463499D03*
X1397D03*
G54D18*
X576599Y1027399D03*
Y1009399D03*
X554999Y1116099D03*
Y1134099D03*
X650199Y1027399D03*
Y1009399D03*
X628699Y1116299D03*
Y1134299D03*
X871199Y1027399D03*
Y1009399D03*
X8509Y1116099D03*
Y1134099D03*
X797599Y1027399D03*
Y1009399D03*
X775999Y1116099D03*
Y1134099D03*
X7239Y1027399D03*
Y1009399D03*
X702299Y1116099D03*
Y1134099D03*
G54D37*
X658999Y585599D02*
X659099D01*
X472499D02*
X658999D01*
X521999Y563899D02*
X595599D01*
X5969Y562599*
X498599Y540499D02*
X521999Y563899D01*
X308299Y505499D02*
X627299D01*
X308299D02*
D01*
X627299D02*
X627399D01*
X746899Y419399D02*
X954499D01*
X100299Y383499D02*
X121399D01*
X079599Y404199D02*
X100299Y383499D01*
X079599Y404199D02*
Y428799D01*
X077299Y431199D02*
X079599Y428799D01*
X168499Y438499D02*
X1778Y429299D01*
Y398799D02*
Y429299D01*
X176599Y397599D02*
X1778Y398799D01*
X176599Y397599D02*
X333699D01*
X857499Y998399D02*
X868499Y1009399D01*
X871199*
X857499Y996899D02*
Y998399D01*
X811299Y996899D02*
Y998399D01*
X871199Y1009399D02*
X917999D01*
X800299D02*
X811299Y998399D01*
Y996899D02*
X857499D01*
X797599Y1009399D02*
X800299D01*
X794799D02*
X797599D01*
X783799Y998399D02*
X794799Y1009399D01*
X783799Y996899D02*
Y998399D01*
X737599Y996899D02*
Y998399D01*
X7239Y1009399D02*
X726699D01*
X737599Y998399*
X710099D02*
X721099Y1009399D01*
X7239*
X710099Y996899D02*
Y998399D01*
X652999Y1009399D02*
X663999Y998399D01*
Y996899D02*
Y998399D01*
X650199Y1009399D02*
X652999D01*
X663999Y996899D02*
X710099D01*
X7239Y777899D02*
Y1009399D01*
X852499Y1027399D02*
X871199D01*
X845599Y1014399D02*
Y1020499D01*
X852499Y1027399*
X843299Y1011999D02*
X845599Y1014399D01*
X268499Y371899D02*
X388399D01*
X415299Y398799D02*
X563899D01*
X388399Y371899D02*
X415299Y398799D01*
X254Y356899D02*
X268799Y371599D01*
X1397Y463499D02*
X231599D01*
X670599Y2159D02*
X746799Y1397D01*
X636499Y253799D02*
X670599D01*
X628199Y1134199D02*
X702199D01*
X1134099Y397499D02*
X1179799Y351799D01*
X472399Y540499D02*
X498599D01*
X389399Y585499D02*
X472399D01*
X389399Y540499D02*
X472399D01*
X306399D02*
X389399D01*
X231599Y465599D02*
X306399Y540499D01*
X143699Y356899D02*
X254D01*
X146799Y438499D02*
X168499D01*
X162599Y383499D02*
X176599Y397599D01*
X1134699Y467699D02*
Y493499D01*
X10795Y548599D02*
X1134699Y493499D01*
X472399Y585499D02*
X472499Y585599D01*
X1135399Y467399D02*
X1304299D01*
X1179799Y351799D02*
X1325899D01*
X1321399Y380199D02*
X1343199Y358499D01*
Y352499D02*
Y358499D01*
X1321399Y380199D02*
Y383499D01*
X1343199Y352499D02*
X1343899Y351799D01*
X954999Y331499D02*
Y332699D01*
Y236199D02*
Y331499D01*
X896599Y1778D02*
X954999Y236199D01*
X746799Y714999D02*
X991899D01*
X746799D02*
Y976399D01*
X6223Y714999D02*
X746799D01*
X691499Y745499D02*
X7239Y777899D01*
X603599Y745499D02*
X691499D01*
X571899Y713799D02*
X603599Y745499D01*
X916899Y1134099D02*
X949999Y1101099D01*
X8509Y1134099D02*
X916899D01*
X949999Y10414D02*
Y1101099D01*
X917999Y1009399D02*
X949999Y10414D01*
X779799Y1027399D02*
X797599D01*
X768299Y1016D02*
X779799Y1027399D01*
X694699Y1013499D02*
X708699Y1027399D01*
X7239*
X623599Y1016D02*
X635Y1027399D01*
X650199*
X538499Y1005799D02*
Y1008399D01*
X557499Y1027399*
X576599*
X737599Y996899D02*
X783799D01*
X637799D02*
X646799Y1005999D01*
X579999D02*
X589099Y996899D01*
X637799*
X576599Y1009399D02*
X579299D01*
X579999Y1005999D02*
Y1008699D01*
X579299Y1009399D02*
X579999Y1008699D01*
X822899Y1031299D02*
Y1061299D01*
X896599Y1029999D02*
Y1061299D01*
X1215399Y491499D02*
X1341099D01*
X601999Y1061299D02*
Y1064699D01*
Y1031199D02*
Y1061299D01*
X748699Y1031899D02*
Y1060699D01*
X747999Y1031199D02*
X748699Y1031899D01*
Y1060699D02*
X7493Y1061299D01*
X822899Y1031299D02*
X822999Y1031199D01*
X675599Y1033799D02*
Y1061299D01*
X871199Y1027399D02*
Y1061299D01*
X797499D02*
D01*
Y1027499D02*
Y1061299D01*
Y1027499D02*
X797599Y1027399D01*
X7239D02*
Y1061299D01*
X650199Y1027399D02*
Y1061299D01*
X576599Y1027399D02*
Y1061299D01*
X850999Y1116199D02*
X871099D01*
X8509Y1116099D02*
X850999Y1116199D01*
X871099D02*
X871199Y1116299D01*
X797399Y1116199D02*
X797499Y1116299D01*
X775999Y1116099D02*
X776099Y1116199D01*
X797399*
X723799D02*
X7239Y1116299D01*
X702299Y1116099D02*
X702399Y1116199D01*
X723799*
X628699Y1116299D02*
X650199D01*
X555099Y1116199D02*
X576499D01*
X554999Y1116099D02*
X555099Y1116199D01*
X576499D02*
X576599Y1116299D01*
X884099Y1077199D02*
Y1100399D01*
X896599Y1112999*
Y1116299*
Y1061299D02*
Y1064699D01*
X884099Y1077199D02*
X896599Y1064699D01*
X810399Y1077199D02*
Y1100399D01*
X822899Y1112999D02*
Y1116299D01*
Y1061299D02*
Y1064699D01*
X810399Y1077199D02*
X822899Y1064699D01*
X810399Y1100399D02*
X822899Y1112999D01*
X736699Y1077199D02*
X7493Y1064699D01*
X736699Y1100399D02*
X7493Y1112999D01*
Y1061299D02*
Y1064699D01*
X736699Y1077199D02*
Y1100399D01*
X7493Y1112999D02*
Y1116299D01*
X675599Y1061299D02*
Y1064699D01*
X663099Y1077199D02*
X675599Y1064699D01*
X663099Y1077199D02*
Y1100399D01*
X675599Y1112999*
Y1116299*
X589399Y1077199D02*
X601999Y1064699D01*
X589399Y1077199D02*
Y1100399D01*
X601999Y1112999D02*
Y1116299D01*
X589399Y1100399D02*
X601999Y1112999D01*
X775999Y1134099D02*
X8509D01*
X702299D02*
X775999D01*
X627399Y1134999D02*
X628199Y1134199D01*
X702199D02*
X702299Y1134099D01*
X626599Y1134199D02*
X627399Y1134999D01*
X554999Y1134099D02*
X555099Y1134199D01*
X626599*
X670599Y2159D02*
Y253799D01*
X576599Y1061299D02*
X578099Y1059799D01*
X650199Y1061299D02*
X650499Y1061099D01*
X7239Y1061299D02*
X724299Y1060899D01*
X871199Y1061299D02*
X871699Y1060899D01*
X871199Y1116299D02*
Y1119699D01*
X797499Y1116299D02*
Y1119699D01*
X7239Y1116299D02*
Y1119699D01*
X650199Y1116299D02*
Y1119699D01*
X627999Y1116999D02*
X628699Y1116299D01*
X554299Y1116799D02*
X554999Y1116099D01*
X576599Y1116299D02*
Y1119699D01*
X991899Y714999D02*
X1215399Y491499D01*
X427999Y363199D02*
X782299D01*
X345499Y288299D02*
X810299D01*
X8255Y303499*
X206999Y426799D02*
Y4318D01*
X121399Y380199D02*
X125699Y375899D01*
Y356899D02*
Y375899D01*
X121399Y380199D02*
Y383499D01*
Y438499D02*
X121599Y438699D01*
Y463399*
X121699Y463499*
X146799Y383499D02*
X162599D01*
X1321399D02*
D01*
X12827D02*
X1321399D01*
X12827D02*
D01*
X6604Y458499D02*
X909299D01*
X9525Y501699D02*
Y572799D01*
X909299Y458499D02*
X9525Y501699D01*
X8763Y648999D02*
X9525Y572799D01*
X8763Y648999D02*
Y687099D01*
X1346799Y383499D02*
X1369099D01*
X1386799Y401299D02*
Y427999D01*
X1369099Y383499D02*
X1386799Y401299D01*
X1362699Y452099D02*
X1386799Y427999D01*
X1321599Y462099D02*
X1321799Y462299D01*
X1321599Y438699D02*
Y462099D01*
X1321399Y438499D02*
X1321599Y438699D01*
X1341099Y491499D02*
X1362699Y4699D01*
Y452099D02*
Y4699D01*
X1349099Y438499D02*
X1362699Y452099D01*
X1346799Y438499D02*
X1349099D01*
X934499Y0254D02*
X970299D01*
X706099Y253799D02*
X934499Y0254D01*
X995299D02*
Y065199D01*
X811899Y253799D02*
X8128Y252899D01*
Y227299D02*
Y252899D01*
X918999Y141399D02*
X995299Y065199D01*
X871999Y141399D02*
X918999D01*
X779099Y234399D02*
Y253799D01*
Y234399D02*
X871999Y141399D01*
G54D38*
X811499Y029199D03*
X811899Y253799D03*
X670599Y029199D03*
X779099Y253799D03*
X706099D03*
X670599D03*
G54D39*
X1005799Y577799D03*
G54D40*
X1079599Y577899D03*
G54D41*
X257799Y4318D03*
X232399D03*
X206999D03*
X1109999D03*
X1135399D03*
X1160799D03*
X1211599D03*
X1236999D03*
X1262399D03*
X308599D03*
X333999D03*
X359399D03*
G54D42*
X638399Y1042299D03*
X564799D03*
X859399D03*
X1309599Y364499D03*
X109599D03*
X785699Y1042299D03*
X712099D03*
G54D43*
X681899Y1088799D03*
X643899D03*
X608299D03*
X570299D03*
X864899D03*
X902899D03*
X1315199Y410999D03*
X1353099D03*
X115199D03*
X153099D03*
X791199Y1088799D03*
X829199D03*
X717599D03*
X755599D03*
G54D44*
X675599Y1116299D03*
X650199D03*
X675599Y1061299D03*
X650199D03*
X601999Y1116299D03*
X576599D03*
X601999Y1061299D03*
X576599D03*
X871199D03*
X896599D03*
X871199Y1116299D03*
X896599D03*
X5715Y534699D03*
X5969D03*
X6223D03*
X6477D03*
X6985D03*
X7239D03*
X7493D03*
X7747D03*
X8001D03*
X8255D03*
X8509D03*
X8763D03*
X9017D03*
Y687099D03*
X8763D03*
X8509D03*
X8255D03*
X8001D03*
X7747D03*
X7493D03*
X7239D03*
X6985D03*
X6731D03*
X6477D03*
X6223D03*
X5969D03*
X5715D03*
X5461D03*
X6731Y534699D03*
X581699Y1778D03*
X896599D03*
X1321399Y383499D03*
X1346799D03*
X1321399Y438499D03*
X1346799D03*
X121399Y383499D03*
X146799D03*
X121399Y438499D03*
X146799D03*
X797499Y1061299D03*
X822899D03*
X797499Y1116299D03*
X822899D03*
X7239Y1061299D03*
X7493D03*
X7239Y1116299D03*
X7493D03*
X603299Y459699D03*
Y408899D03*
Y434299D03*
X628699D03*
Y408899D03*
Y383499D03*
Y459699D03*
X658999Y585599D03*
X5969Y562599D03*
X627399Y505499D03*
X746899Y419499D03*
X077299Y431199D03*
X564199Y397999D03*
X231599Y465599D03*
X268499Y371899D03*
X333699Y397599D03*
X1080099Y549499D03*
X1134699Y396599D03*
Y467699D03*
X954999Y331499D03*
X746799Y976599D03*
X571899Y713799D03*
X843299Y1014399D03*
X769899D03*
X694699D03*
X624099D03*
X538499Y1005799D03*
X896799Y1031199D03*
X823099D03*
X747999D03*
X601999D03*
X675799D03*
X746699Y139599D03*
X637499Y252699D03*
X6223Y714999D03*
X954499Y419399D03*
X783599Y363199D03*
X430499Y361899D03*
X308299Y505499D03*
X8255Y303499D03*
X346699Y286999D03*
X12827Y383499D03*
X1217899Y490199D03*
X6604Y458499D03*
X8128Y227299D03*
G54D45*
X724699Y333999D03*
G54D46*
X902499Y486399D03*
X877099D03*
X851699D03*
X826299D03*
X800899D03*
X775499D03*
X750099D03*
X724699D03*
X750099Y333999D03*
X775499D03*
X800899D03*
X826299D03*
X851699D03*
X877099D03*
X902499D03*
G54D47*
X5461Y534699D03*
G54D48*
X970299Y0254D03*
X995299D03*
G54D49*
X897899Y250199D03*
X581699D03*
X603299Y383499D03*
G54D50*
X280199Y087499D03*
X280099Y266899D03*
X1196999Y089799D03*
X1196899Y269199D03*
G54D51*
X670599Y970299D03*
X805199D03*
G54D52*
X510499Y020299D03*
X485099D03*
X459699D03*
M02*